{
	"asset":{
		"generator":"Khronos glTF Blender I/O v4.2.69",
		"version":"2.0"
	},
	"scene":0,
	"scenes":[
		{
			"name":"Scene",
			"nodes":[
				0,
				1,
				2
			]
		}
	],
	"nodes":[
		{
			"mesh":0,
			"name":"1900",
			"rotation":[
				0.7071068286895752,
				0,
				0,
				0.7071068286895752
			]
		},
		{
			"mesh":1,
			"name":"1800",
			"rotation":[
				0.7071068286895752,
				0,
				0,
				0.7071068286895752
			]
		},
		{
			"mesh":2,
			"name":"1700",
			"rotation":[
				0.7071068286895752,
				0,
				0,
				0.7071068286895752
			]
		}
	],
	"meshes":[
		{
			"name":"1900",
			"primitives":[
				{
					"attributes":{
						"POSITION":0,
						"NORMAL":1,
						"TEXCOORD_0":2
					},
					"indices":3
				}
			]
		},
		{
			"name":"1800",
			"primitives":[
				{
					"attributes":{
						"POSITION":4,
						"NORMAL":5,
						"TEXCOORD_0":6
					},
					"indices":7
				}
			]
		},
		{
			"name":"1700",
			"primitives":[
				{
					"attributes":{
						"POSITION":8,
						"NORMAL":9,
						"TEXCOORD_0":10
					},
					"indices":11
				}
			]
		}
	],
	"accessors":[
		{
			"bufferView":0,
			"componentType":5126,
			"count":107168,
			"max":[
				1948,
				5.684340259777543e-13,
				-1.1572700138425186e-16
			],
			"min":[
				-8.526510118615771e-14,
				-685,
				-2100.320068359375
			],
			"type":"VEC3"
		},
		{
			"bufferView":1,
			"componentType":5126,
			"count":107168,
			"type":"VEC3"
		},
		{
			"bufferView":2,
			"componentType":5126,
			"count":107168,
			"type":"VEC2"
		},
		{
			"bufferView":3,
			"componentType":5125,
			"count":212526,
			"type":"SCALAR"
		},
		{
			"bufferView":4,
			"componentType":5126,
			"count":106373,
			"max":[
				1848,
				5.684340259777543e-13,
				-1.1572700138425186e-16
			],
			"min":[
				-8.526510118615771e-14,
				-685,
				-2100.340087890625
			],
			"type":"VEC3"
		},
		{
			"bufferView":5,
			"componentType":5126,
			"count":106373,
			"type":"VEC3"
		},
		{
			"bufferView":6,
			"componentType":5126,
			"count":106373,
			"type":"VEC2"
		},
		{
			"bufferView":7,
			"componentType":5125,
			"count":211038,
			"type":"SCALAR"
		},
		{
			"bufferView":8,
			"componentType":5126,
			"count":106608,
			"max":[
				1746,
				0,
				3.273560047149658
			],
			"min":[
				-1.5347700324172542e-12,
				-685,
				-2100
			],
			"type":"VEC3"
		},
		{
			"bufferView":9,
			"componentType":5126,
			"count":106608,
			"type":"VEC3"
		},
		{
			"bufferView":10,
			"componentType":5126,
			"count":106608,
			"type":"VEC2"
		},
		{
			"bufferView":11,
			"componentType":5125,
			"count":210540,
			"type":"SCALAR"
		}
	],
	"bufferViews":[
		{
			"buffer":0,
			"byteLength":1286016,
			"byteOffset":0,
			"target":34962
		},
		{
			"buffer":0,
			"byteLength":1286016,
			"byteOffset":1286016,
			"target":34962
		},
		{
			"buffer":0,
			"byteLength":857344,
			"byteOffset":2572032,
			"target":34962
		},
		{
			"buffer":0,
			"byteLength":850104,
			"byteOffset":3429376,
			"target":34963
		},
		{
			"buffer":0,
			"byteLength":1276476,
			"byteOffset":4279480,
			"target":34962
		},
		{
			"buffer":0,
			"byteLength":1276476,
			"byteOffset":5555956,
			"target":34962
		},
		{
			"buffer":0,
			"byteLength":850984,
			"byteOffset":6832432,
			"target":34962
		},
		{
			"buffer":0,
			"byteLength":844152,
			"byteOffset":7683416,
			"target":34963
		},
		{
			"buffer":0,
			"byteLength":1279296,
			"byteOffset":8527568,
			"target":34962
		},
		{
			"buffer":0,
			"byteLength":1279296,
			"byteOffset":9806864,
			"target":34962
		},
		{
			"buffer":0,
			"byteLength":852864,
			"byteOffset":11086160,
			"target":34962
		},
		{
			"buffer":0,
			"byteLength":842160,
			"byteOffset":11939024,
			"target":34963
		}
	],
	"buffers":[
		{
			"byteLength":12781184,
			"uri":"left.bin"
		}
	]
}
